<svg id="arrow" data-name="arrow" xmlns="http://www.w3.org/2000/svg" viewBox="0 0 23 23"><defs><style>.cls-1{fill:#199484;}.cls-2{fill:#fff;}</style></defs><title>arrow</title><path class="cls-1" d="M560.5,344A11.5,11.5,0,1,1,549,355.5,11.5,11.5,0,0,1,560.5,344Z" transform="translate(-549 -344)"/><path class="cls-2" d="M563.71,356.19l-3.22,3.54a.83.83,0,0,1-1.24,0,1,1,0,0,1,0-1.37l2.59-2.86-2.59-2.85a1,1,0,0,1,0-1.37.82.82,0,0,1,1.24,0l3.22,3.54A1,1,0,0,1,563.71,356.19Z" transform="translate(-549 -344)"/></svg>