<svg data-name="footer_phone" xmlns="http://www.w3.org/2000/svg" viewBox="0 0 31 31"><path d="M15.5.5a15 15 0 1 1-15 15 15 15 0 0 1 15-15z" fill="none" stroke="#ebebeb"/><path d="M9.4 12a4 4 0 0 1 .44-1.68c.33-.68 1.61-1.05 1.61-1.05s.55-.14 1.65.93a2.54 2.54 0 0 1 .78 1.54c0 .54-1.11 1.69-1.11 1.69a3.49 3.49 0 0 0 .79 1.79c.46.53 1.23 1.35 1.64 1.73a8.93 8.93 0 0 0 1.26 1.1c1 .68 1.27.62 1.27.62s1.46-1.22 1.89-1.18a2.77 2.77 0 0 1 1.4.77 3.81 3.81 0 0 1 1 1 2 2 0 0 1 .19.42s.05.61-.89 1.57a2.61 2.61 0 0 1-2.22.71 8 8 0 0 1-2-.68 13.49 13.49 0 0 1-3.62-2.59 23.31 23.31 0 0 1-2.9-3.65A12.86 12.86 0 0 1 9.4 12z" fill="#171b57"/></svg>