<svg xmlns="http://www.w3.org/2000/svg" viewBox="0 0 297.64 297.64"><defs><style>.cls-1{fill:#1e2055;}.cls-2{fill:#65ad8e;}.cls-3{fill:#fff;}</style></defs><title>logo</title><g id="Слой_1" data-name="Слой 1"><circle class="cls-1" cx="148.82" cy="148.82" r="148.82"/><polygon class="cls-2" points="128.36 99.99 128.36 147.62 136.35 147.62 136.35 99.99 136.35 96.91 128.36 96.91 128.36 99.99"/><path class="cls-2" d="M333.28,527.25H316.09V506.62H277.91v20.63H269c-32.41,0-52.32,4.51-52.32,4.51v7.74S245.59,535,269,535h34.49v-7.74H285.9v-5.54a12,12,0,0,1,22.7,0V546.6h-6c-10.85,0-10,9.35-10,9.35v25.64c0,2.86.31,9.13,10,9.13h7.09c4.45,0,6.43-2.28,6.43-7.43V535h17.19c17.92,0,43.32,4.51,43.32,4.51v-7.74A202.38,202.38,0,0,0,333.28,527.25Zm-24.68,55.5h-4.51a4.3,4.3,0,0,1-3-1.13,3.48,3.48,0,0,1-1.23-2.65V558.31a5,5,0,0,1,1.25-3.37,4.34,4.34,0,0,1,3-1.11h4.51Z" transform="translate(-149.55 -443.11)"/><path class="cls-3" d="M207.25,590.72h-5.87v-33h-.09l-5.63,33h-6.17l-5.51-33h-.08v33H178V546.79h9.2l5.46,31.67h.08l5.38-31.67h9.11Z" transform="translate(-149.55 -443.11)"/><path class="cls-3" d="M241,569.05c0,4.11-.52,9.36-1.57,12.06a15.35,15.35,0,0,1-3.93,6.11,13.16,13.16,0,0,1-4.71,2.79,14.54,14.54,0,0,1-4.28.71,14.69,14.69,0,0,1-4.29-.72,13,13,0,0,1-4.71-2.8,15.24,15.24,0,0,1-3.93-6.11c-1.05-2.68-1.57-7.93-1.57-12s.52-9.95,1.57-12.63a15.33,15.33,0,0,1,3.91-6.11,13,13,0,0,1,4.69-2.8,13.38,13.38,0,0,1,8.66,0,12.94,12.94,0,0,1,4.67,2.79,15.23,15.23,0,0,1,3.92,6.1C240.43,559.1,241,564.92,241,569.05Zm-6.3,0c0-2.51.93-15.6-8.19-15.6s-8.19,13.09-8.19,15.6,0,15,8.19,15S234.65,571.54,234.65,569.05Z" transform="translate(-149.55 -443.11)"/><path class="cls-3" d="M271.55,576.81a23,23,0,0,1-2.31,7.31,12.83,12.83,0,0,1-4.39,4.87,11.67,11.67,0,0,1-6.41,1.73,11.94,11.94,0,0,1-7.18-2.26,14.53,14.53,0,0,1-4.86-6.74c-1.17-3-1.75-10.83-1.75-15a29.28,29.28,0,0,1,1.81-10.88,14.92,14.92,0,0,1,5-6.76,11.86,11.86,0,0,1,7.09-2.26,12.52,12.52,0,0,1,5.67,1.23,11.71,11.71,0,0,1,4,3.22,15,15,0,0,1,2.38,4.31,16.78,16.78,0,0,1,.95,4.58h-6.31a12.45,12.45,0,0,0-1.94-4.62q-1.33-1.89-4.74-1.89-2.91,0-5.19,3t-2.29,10.16c0,2.37.27,8.77.79,10.72a10.44,10.44,0,0,0,2.46,4.65,5.62,5.62,0,0,0,4.23,1.73,6.05,6.05,0,0,0,3.13-.8,6.43,6.43,0,0,0,2.28-2.42,11.39,11.39,0,0,0,1.27-3.86Z" transform="translate(-149.55 -443.11)"/><path class="cls-3" d="M349.15,577.5a25.13,25.13,0,0,1-.68,5.93,11.9,11.9,0,0,1-1.92,3.7,10.4,10.4,0,0,1-2,2,7.68,7.68,0,0,1-2.78,1.16,22.06,22.06,0,0,1-4.74.41H324.24V546.79h14.67a7.24,7.24,0,0,1,4.94,1.58,9.24,9.24,0,0,1,3.24,3.9,13.71,13.71,0,0,1,1.1,4.69c0,2.48.17,5.49-1.06,7.52a8.59,8.59,0,0,1-2.63,2.73C348.36,569.24,349.15,572.62,349.15,577.5ZM342.43,559c0-3.29-1.87-5.39-3.4-5.39h-8.74v10.8H339C340.35,564.44,342.43,562.31,342.43,559Zm.43,18.9c0-1.62,0-6.79-5.39-6.79h-7.18v12.73H338C341.25,583.87,342.86,581.79,342.86,577.93Z" transform="translate(-149.55 -443.11)"/><path class="cls-3" d="M377.73,578a18.44,18.44,0,0,1-1.13,6.74,9.6,9.6,0,0,1-3.24,4.43,8.25,8.25,0,0,1-5,1.54H354.58V546.79h6.3v16.44h7.23a7.75,7.75,0,0,1,5.84,2.22,11.79,11.79,0,0,1,3,5.13A37.43,37.43,0,0,1,377.73,578Zm-6.3-1.42a10.15,10.15,0,0,0-1.08-4.62,5.16,5.16,0,0,0-4.36-1.88h-5.11v13.78H366a6.21,6.21,0,0,0,4.36-1.32C371.23,581.69,371.43,578.52,371.43,576.59Zm16.42,14.13h-6.3V546.79h6.3Z" transform="translate(-149.55 -443.11)"/><path class="cls-3" d="M416.79,590.72H394.24V546.79h22.55v7H400.42v10.48H415v7H400.42v12.41h16.37Z" transform="translate(-149.55 -443.11)"/><path class="cls-3" d="M187.27,626a10.85,10.85,0,0,1-2.47,6,8.91,8.91,0,0,1-3.88,2.62,12.84,12.84,0,0,1-3.54.57,10.56,10.56,0,0,1-3.81-.7,9,9,0,0,1-3.25-2.2,10.44,10.44,0,0,1-2.28-3.88,17,17,0,0,1-.83-5.62,16,16,0,0,1,.72-4.93A11.16,11.16,0,0,1,170,614a9.36,9.36,0,0,1,3.34-2.49,10.7,10.7,0,0,1,4.4-.87,10.36,10.36,0,0,1,4.8,1,8.19,8.19,0,0,1,3.15,2.8,8.92,8.92,0,0,1,1.35,3.78h-3a5.3,5.3,0,0,0-2.38-3.79,7.71,7.71,0,0,0-4-1.05,6.91,6.91,0,0,0-3.78,1.06,7.14,7.14,0,0,0-2.65,3.14,11.88,11.88,0,0,0-1,5,12.57,12.57,0,0,0,1.76,7.08q1.77,2.63,5.74,2.63a6.78,6.78,0,0,0,2.49-.52,5.8,5.8,0,0,0,2.38-2,9.14,9.14,0,0,0,1.58-3.92Z" transform="translate(-149.55 -443.11)"/><path class="cls-3" d="M207.37,614h-7.66v20.52h-3.05V614H189v-2.79h18.37Z" transform="translate(-149.55 -443.11)"/><path class="cls-3" d="M227.44,617.82a7.49,7.49,0,0,1-1.66,4.85,6.1,6.1,0,0,1-5.05,2.06h-7.46v9.83H210.2v-23.3h10.53a7.29,7.29,0,0,1,3.56.84,5.73,5.73,0,0,1,2.34,2.34A7,7,0,0,1,227.44,617.82Zm-3.15,0q0-3.9-4.47-3.9h-6.55V622h6.42C222.75,622,224.29,620.64,224.29,617.85Z" transform="translate(-149.55 -443.11)"/><path class="cls-3" d="M252,622.88a16.39,16.39,0,0,1-.55,4.18,12.5,12.5,0,0,1-1.83,4,9.54,9.54,0,0,1-3.41,3,10.81,10.81,0,0,1-5.14,1.14,10.66,10.66,0,0,1-5.14-1.15,9.52,9.52,0,0,1-3.41-3,12.5,12.5,0,0,1-1.83-4,16.2,16.2,0,0,1,0-8.37,12.65,12.65,0,0,1,1.82-4,9.49,9.49,0,0,1,3.42-3,12.21,12.21,0,0,1,10.28,0,9.54,9.54,0,0,1,3.41,3,12.5,12.5,0,0,1,1.83,4A16.47,16.47,0,0,1,252,622.88Zm-3.06,0A12.07,12.07,0,0,0,248,618a7.61,7.61,0,0,0-2.74-3.36,7.79,7.79,0,0,0-8.37,0,7.68,7.68,0,0,0-2.74,3.36,13.14,13.14,0,0,0,0,9.81,7.76,7.76,0,0,0,2.75,3.36,7.81,7.81,0,0,0,8.35,0,7.76,7.76,0,0,0,2.75-3.36A12.15,12.15,0,0,0,249,622.88Z" transform="translate(-149.55 -443.11)"/><path class="cls-3" d="M273.69,634.53h-3V615.7h-.06l-11.5,18.83h-3.43V611.22h3v18.83h.07l11.3-18.83h3.63Z" transform="translate(-149.55 -443.11)"/><path class="cls-3" d="M294.88,614h-7.65v20.52h-3.05V614h-7.66v-2.79h18.36Z" transform="translate(-149.55 -443.11)"/><path class="cls-3" d="M314.42,634.53h-16.7V611.22H314.2V614H300.78v7.14h12.38V624H300.78v7.79h13.64Z" transform="translate(-149.55 -443.11)"/><path class="cls-3" d="M335,634.53h-3V614H322.8v14.22a8.73,8.73,0,0,1-.85,4.22,4.38,4.38,0,0,1-2.18,2,8,8,0,0,1-3,.52v-2.82a2.73,2.73,0,0,0,2.48-1,5.48,5.48,0,0,0,.64-2.92v-17H335Z" transform="translate(-149.55 -443.11)"/><path class="cls-3" d="M357,628a7,7,0,0,1-.81,3.37,5.73,5.73,0,0,1-2.34,2.34,7.3,7.3,0,0,1-3.57.84H339.74V611.22h3.06v9.84h7.46a6.77,6.77,0,0,1,3.83,1,5.86,5.86,0,0,1,2.2,2.59A8.21,8.21,0,0,1,357,628Zm-3.16,0q0-4.2-4.59-4.2H342.8v8.09h6.56Q353.81,631.84,353.82,628Z" transform="translate(-149.55 -443.11)"/><path class="cls-3" d="M378.68,634.53h-3.05V623.66H363.81v10.87h-3.06V611.22h3.06v9.65h11.82v-9.65h3.05Z" transform="translate(-149.55 -443.11)"/><path class="cls-3" d="M400.38,628a7,7,0,0,1-.81,3.37,5.77,5.77,0,0,1-2.33,2.34,7.3,7.3,0,0,1-3.57.84H383.5V611.22h3.06v9.84h7.11a6.8,6.8,0,0,1,3.83,1,5.92,5.92,0,0,1,2.2,2.59A8.37,8.37,0,0,1,400.38,628Zm-3.15,0q0-4.2-4.6-4.2h-6.07v8.09h6.2Q397.23,631.84,397.23,628Zm8.88,6.58h-3.05V611.22h3.05Z" transform="translate(-149.55 -443.11)"/><path class="cls-3" d="M427.6,634.53H410.91V611.22h16.48V614H414v7.14h12.37V624H414v7.79H427.6Z" transform="translate(-149.55 -443.11)"/><path class="cls-3" d="M208.66,651.85H201v20.51h-3V651.85H190.3v-2.79h18.36Z" transform="translate(-149.55 -443.11)"/><path class="cls-3" d="M228.2,672.36H211.5v-23.3H228v2.79H214.56V659h12.38v2.79H214.56v7.79H228.2Z" transform="translate(-149.55 -443.11)"/><path class="cls-3" d="M250.53,672.36h-3.77l-6.18-9.57-6.18,9.57h-3.65l8-11.94-7.59-11.36H235l5.7,8.92,5.8-8.92h3.65l-7.65,11.36Z" transform="translate(-149.55 -443.11)"/><path class="cls-3" d="M271.45,672.36H268.4V661.49H256.59v10.87h-3.07v-23.3h3.07v9.64H268.4v-9.64h3.05Z" transform="translate(-149.55 -443.11)"/><path class="cls-3" d="M297.06,660.71a16.33,16.33,0,0,1-.55,4.18,12.5,12.5,0,0,1-1.83,4,9.54,9.54,0,0,1-3.41,3,12.16,12.16,0,0,1-10.28,0,9.55,9.55,0,0,1-3.41-3,12.5,12.5,0,0,1-1.83-4,16.16,16.16,0,0,1,0-8.36,12.7,12.7,0,0,1,1.82-4,9.58,9.58,0,0,1,3.42-3,10.81,10.81,0,0,1,5.14-1.14,11,11,0,0,1,5.14,1.13,9.54,9.54,0,0,1,3.41,3,12.66,12.66,0,0,1,1.83,4A16.33,16.33,0,0,1,297.06,660.71Zm-3.06,0a12.1,12.1,0,0,0-.95-4.9,7.74,7.74,0,0,0-2.74-3.36,7.84,7.84,0,0,0-8.37,0,7.74,7.74,0,0,0-2.74,3.36,13.14,13.14,0,0,0,0,9.81A7.65,7.65,0,0,0,282,669a7.81,7.81,0,0,0,8.35,0,7.65,7.65,0,0,0,2.75-3.36A12.11,12.11,0,0,0,294,660.71Z" transform="translate(-149.55 -443.11)"/><path class="cls-3" d="M317.07,672.36H314V651.85h-9.17v14.21a8.59,8.59,0,0,1-.85,4.22,4.38,4.38,0,0,1-2.17,2,8.28,8.28,0,0,1-3,.51V670a2.71,2.71,0,0,0,2.48-1,5.48,5.48,0,0,0,.64-2.92v-17h15.13Z" transform="translate(-149.55 -443.11)"/><path class="cls-3" d="M342.58,660.71a16.33,16.33,0,0,1-.55,4.18,12.5,12.5,0,0,1-1.83,4,9.54,9.54,0,0,1-3.41,3,12.16,12.16,0,0,1-10.28,0,9.55,9.55,0,0,1-3.41-3,12.5,12.5,0,0,1-1.83-4,16.16,16.16,0,0,1,0-8.36,12.5,12.5,0,0,1,1.83-4,9.46,9.46,0,0,1,3.41-3,10.81,10.81,0,0,1,5.14-1.14,10.93,10.93,0,0,1,5.14,1.13,9.37,9.37,0,0,1,3.41,3,12.66,12.66,0,0,1,1.83,4A16.33,16.33,0,0,1,342.58,660.71Zm-3.06,0a11.93,11.93,0,0,0-.95-4.9,7.72,7.72,0,0,0-2.73-3.36,7.86,7.86,0,0,0-8.38,0,7.81,7.81,0,0,0-2.74,3.36,12.1,12.1,0,0,0-1,4.9,12,12,0,0,0,1,4.91,7.63,7.63,0,0,0,2.74,3.36,7.81,7.81,0,0,0,8.35,0,7.65,7.65,0,0,0,2.75-3.36A12,12,0,0,0,339.52,660.71Z" transform="translate(-149.55 -443.11)"/><path class="cls-3" d="M361.14,651.85H349.36v20.48H346.3V649.06h14.84Z" transform="translate(-149.55 -443.11)"/><path class="cls-3" d="M381.77,672.36h-3V653.53h-.06l-11.5,18.83h-3.44v-23.3h3v18.83h.07l11.31-18.83h3.62Z" transform="translate(-149.55 -443.11)"/><path class="cls-3" d="M404.51,672.36h-3V653.53h-.06L390,672.36h-3.44v-23.3h3v18.83h.07l11.31-18.83h3.62Z" transform="translate(-149.55 -443.11)"/></g></svg>